REM DIRINDEX 1\5,1\2\6,1\2\7,1\3\8,1\3\9,1\4\10,1\4\11,1\4\12
REM DIRNAME cjc026,folder01,folder02,folder03,folder04,folder05,folder06,folder07,folder08,folder09,folder10,folder11
TITLE ""
FILE "EJE_DB3000_5th_1A_20.mp3" MP3
  TRACK 01 AUDIO
    TITLE "0:"
    INDEX 01 00:00:00
  TRACK 02 AUDIO
    TITLE "10:cjc026_07398"
    INDEX 01 00:00:08
  TRACK 03 AUDIO
    TITLE "0:"
    INDEX 01 00:01:38
  TRACK 04 AUDIO
    TITLE "11:cjc026_07399"
    INDEX 01 00:02:01
  TRACK 05 AUDIO
    TITLE "0:"
    INDEX 01 00:03:23
  TRACK 06 AUDIO
    TITLE "12:cjc026_07400"
    INDEX 01 00:03:58
  TRACK 07 AUDIO
    TITLE "0:"
    INDEX 01 00:05:16
  TRACK 08 AUDIO
    TITLE "10:cjc026_07401"
    INDEX 01 00:05:51
  TRACK 09 AUDIO
    TITLE "0:"
    INDEX 01 00:07:01
  TRACK 10 AUDIO
    TITLE "11:cjc026_07402"
    INDEX 01 00:07:36
  TRACK 11 AUDIO
    TITLE "0:"
    INDEX 01 00:08:58
  TRACK 12 AUDIO
    TITLE "12:cjc026_07403"
    INDEX 01 00:09:18
  TRACK 13 AUDIO
    TITLE "0:"
    INDEX 01 00:10:43
  TRACK 14 AUDIO
    TITLE "10:cjc026_07404"
    INDEX 01 00:11:03
  TRACK 15 AUDIO
    TITLE "0:"
    INDEX 01 00:12:47
  TRACK 16 AUDIO
    TITLE "11:cjc026_07405"
    INDEX 01 00:13:05
  TRACK 17 AUDIO
    TITLE "0:"
    INDEX 01 00:14:30
  TRACK 18 AUDIO
    TITLE "12:cjc026_07406"
    INDEX 01 00:14:65
  TRACK 19 AUDIO
    TITLE "0:"
    INDEX 01 00:16:33
  TRACK 20 AUDIO
    TITLE "10:cjc026_07407"
    INDEX 01 00:16:66
  TRACK 21 AUDIO
    TITLE "0:"
    INDEX 01 00:18:21
  TRACK 22 AUDIO
    TITLE "11:cjc026_07408"
    INDEX 01 00:18:56
  TRACK 23 AUDIO
    TITLE "0:"
    INDEX 01 00:20:03
  TRACK 24 AUDIO
    TITLE "12:cjc026_07409"
    INDEX 01 00:20:39
  TRACK 25 AUDIO
    TITLE "0:"
    INDEX 01 00:21:69
  TRACK 26 AUDIO
    TITLE "10:cjc026_07410"
    INDEX 01 00:22:29
  TRACK 27 AUDIO
    TITLE "0:"
    INDEX 01 00:23:57
  TRACK 28 AUDIO
    TITLE "11:cjc026_07411"
    INDEX 01 00:24:19
  TRACK 29 AUDIO
    TITLE "0:"
    INDEX 01 00:25:50
  TRACK 30 AUDIO
    TITLE "12:cjc026_07412"
    INDEX 01 00:26:07
  TRACK 31 AUDIO
    TITLE "0:"
    INDEX 01 00:27:37
  TRACK 32 AUDIO
    TITLE "10:cjc026_07413"
    INDEX 01 00:27:72
  TRACK 33 AUDIO
    TITLE "0:"
    INDEX 01 00:29:30
  TRACK 34 AUDIO
    TITLE "11:cjc026_07414"
    INDEX 01 00:29:68
  TRACK 35 AUDIO
    TITLE "0:"
    INDEX 01 00:31:51
  TRACK 36 AUDIO
    TITLE "12:cjc026_07415"
    INDEX 01 00:32:11
  TRACK 37 AUDIO
    TITLE "0:"
    INDEX 01 00:33:46
  TRACK 38 AUDIO
    TITLE "10:cjc026_07416"
    INDEX 01 00:34:06
  TRACK 39 AUDIO
    TITLE "0:"
    INDEX 01 00:35:31
  TRACK 40 AUDIO
    TITLE "11:cjc026_07417"
    INDEX 01 00:35:66
  TRACK 41 AUDIO
    TITLE "0:"
    INDEX 01 00:38:22
  TRACK 42 AUDIO
    TITLE "12:cjc026_07418"
    INDEX 01 00:38:57
  TRACK 43 AUDIO
    TITLE "0:"
    INDEX 01 00:40:07
  TRACK 44 AUDIO
    TITLE "10:cjc026_07419"
    INDEX 01 00:40:40
  TRACK 45 AUDIO
    TITLE "0:"
    INDEX 01 00:41:67
  TRACK 46 AUDIO
    TITLE "11:cjc026_07420"
    INDEX 01 00:42:27
  TRACK 47 AUDIO
    TITLE "0:"
    INDEX 01 00:44:58
  TRACK 48 AUDIO
    TITLE "12:cjc026_07421"
    INDEX 01 00:45:18
  TRACK 49 AUDIO
    TITLE "0:"
    INDEX 01 00:46:43
  TRACK 50 AUDIO
    TITLE "10:cjc026_07422"
    INDEX 01 00:47:03
  TRACK 51 AUDIO
    TITLE "0:"
    INDEX 01 00:48:18
  TRACK 52 AUDIO
    TITLE "11:cjc026_07423"
    INDEX 01 00:48:53
  TRACK 53 AUDIO
    TITLE "0:"
    INDEX 01 00:51:11
  TRACK 54 AUDIO
    TITLE "12:cjc026_07424"
    INDEX 01 00:51:46
  TRACK 55 AUDIO
    TITLE "0:"
    INDEX 01 00:52:60
  TRACK 56 AUDIO
    TITLE "10:cjc026_07425"
    INDEX 01 00:53:23
  TRACK 57 AUDIO
    TITLE "0:"
    INDEX 01 00:54:24
  TRACK 58 AUDIO
    TITLE "11:cjc026_07426"
    INDEX 01 00:54:67
  TRACK 59 AUDIO
    TITLE "0:"
    INDEX 01 00:56:25
  TRACK 60 AUDIO
    TITLE "12:cjc026_07427"
    INDEX 01 00:56:63
  TRACK 61 AUDIO
    TITLE "0:"
    INDEX 01 00:57:63
  TRACK 62 AUDIO
    TITLE "10:cjc026_07428"
    INDEX 01 00:58:32
  TRACK 63 AUDIO
    TITLE "0:"
    INDEX 01 00:59:46
  TRACK 64 AUDIO
    TITLE "11:cjc026_07429"
    INDEX 01 01:00:06
  TRACK 65 AUDIO
    TITLE "0:"
    INDEX 01 01:01:44
  TRACK 66 AUDIO
    TITLE "12:cjc026_07430"
    INDEX 01 01:02:07
  TRACK 67 AUDIO
    TITLE "0:"
    INDEX 01 01:03:21
  TRACK 68 AUDIO
    TITLE "10:cjc026_07431"
    INDEX 01 01:03:54
  TRACK 69 AUDIO
    TITLE "0:"
    INDEX 01 01:04:60
  TRACK 70 AUDIO
    TITLE "11:cjc026_07432"
    INDEX 01 01:05:25
  TRACK 71 AUDIO
    TITLE "0:"
    INDEX 01 01:06:23
  TRACK 72 AUDIO
    TITLE "12:cjc026_07433"
    INDEX 01 01:06:58
  TRACK 73 AUDIO
    TITLE "0:"
    INDEX 01 01:07:64
